# xmcd
#
# Track frame offsets:
#	150
#	15895
#	41695
#	61862
#	88717
#	107912
#	125132
#	148147
#	155267
#	173772
#	192587
#	212380
#
# Disc length: 3131 seconds
#
# Revision: 1
# Processed by: cddbd v1.5.2PL0 Copyright (c) Steve Scherf et al.
# Submitted via: audiograbber 1.83.01
#
DISCID=a10c390c
DTITLE=Methrone - My Life
DYEAR=1900
DGENRE=
TTITLE0=Hold me
TTITLE1=I wanna get freaky
TTITLE2=Back and Forth
TTITLE3=My Life
TTITLE4=Your body
TTITLE5=You don´t have to worry
TTITLE6=Loving each other 4 life
TTITLE7=interlude (the storm)
TTITLE8=Slow and Steady
TTITLE9=Last time
TTITLE10=Got 2 Go
TTITLE11=Back and Forth (remix)
EXTD=
EXTT0=
EXTT1=
EXTT2=
EXTT3=
EXTT4=
EXTT5=
EXTT6=
EXTT7=
EXTT8=
EXTT9=
EXTT10=
EXTT11=
PLAYORDER=
